<svg width="56" height="35" viewBox="0 0 56 35" fill="none" xmlns="http://www.w3.org/2000/svg">
<rect x="0.5" y="0.5" width="55" height="34" rx="4.5" fill="white" stroke="#FFF2F5"/>
<path d="M15.307 11.1151C15.7624 10.5458 16.0713 9.78115 15.9899 9C15.3235 9.03309 14.5106 9.43956 14.0396 10.0095C13.6169 10.4974 13.2428 11.2938 13.3402 12.0422C14.0882 12.1071 14.8356 11.6685 15.307 11.1151Z" fill="black"/>
<path d="M15.9815 12.1884C14.8948 12.1236 13.9715 12.8048 13.4528 12.8048C12.9338 12.8048 12.1393 12.2209 11.28 12.2368C10.1618 12.253 9.12436 12.8856 8.55666 13.8912C7.38947 15.9025 8.24848 18.8869 9.38388 20.5252C9.93503 21.3362 10.5994 22.2283 11.4746 22.1961C12.3019 22.1637 12.6259 21.6609 13.6309 21.6609C14.6356 21.6609 14.9275 22.1961 15.8031 22.1799C16.7108 22.1637 17.2785 21.3689 17.8296 20.5579C18.4622 19.6334 18.7207 18.7413 18.737 18.6926C18.7207 18.6764 16.9865 18.0111 16.9703 16.016C16.9541 14.3454 18.3321 13.5506 18.397 13.5016C17.6188 12.3506 16.4029 12.2209 15.9812 12.1884" fill="black"/>
<path d="M26.8119 9.93018C29.1729 9.93018 30.8173 11.5577 30.8173 13.9271C30.8173 16.3049 29.1392 17.9409 26.7529 17.9409H24.1389V22.0984H22.2502V9.93018H26.8119ZM24.1389 16.3555H26.3059C27.9506 16.3555 28.8862 15.4703 28.8862 13.9355C28.8862 12.4011 27.9503 11.5239 26.3143 11.5239H24.1389V16.3555Z" fill="black"/>
<path d="M31.2863 19.5766C31.2863 18.0166 32.4752 17.1228 34.6675 16.9879L37.02 16.8445V16.1698C37.02 15.1836 36.3709 14.6438 35.2157 14.6438C34.2626 14.6438 33.571 15.1327 33.4283 15.883H31.7245C31.7754 14.3064 33.2593 13.1597 35.2663 13.1597C37.4249 13.1597 38.8331 14.2895 38.8331 16.0436V22.0978H37.0878V20.639H37.0456C36.548 21.5918 35.4515 22.1903 34.2626 22.1903C32.5089 22.1903 31.2863 21.1451 31.2863 19.5766ZM37.02 18.7925V18.1093L34.9205 18.2443C33.7397 18.3202 33.1246 18.7585 33.1246 19.5257C33.1246 20.2679 33.7653 20.7487 34.7687 20.7487C36.0501 20.7487 37.02 19.9305 37.02 18.7925Z" fill="black"/>
<path d="M40.4376 25.3522V23.8937C40.5557 23.9103 40.8421 23.9272 40.9939 23.9272C41.8286 23.9272 42.301 23.5736 42.5877 22.6623L42.7564 22.1229L39.5604 13.269H41.5334L43.7598 20.4532H43.8019L46.028 13.269H47.9507L44.6366 22.5696C43.8775 24.7031 43.0091 25.4032 41.1711 25.4032C41.0277 25.4032 40.5638 25.3863 40.4376 25.3522Z" fill="black"/>
</svg>
